<svg width="1600" height="1000" viewBox="0 0 1600 1000" fill="none" xmlns="http://www.w3.org/2000/svg">
  <defs>
    <linearGradient id="bg" x1="0" y1="0" x2="1" y2="1">
      <stop offset="0" stop-color="#ffffff"/>
      <stop offset="1" stop-color="#fafafc"/>
    </linearGradient>
    <radialGradient id="glow" cx="0" cy="0" r="1" gradientUnits="userSpaceOnUse" gradientTransform="translate(1060 360) rotate(120) scale(860 620)">
      <stop offset="0" stop-color="#FCE4EC" stop-opacity="0.95"/>
      <stop offset="1" stop-color="#FCE4EC" stop-opacity="0"/>
    </radialGradient>
    <filter id="shadow" x="-60" y="-60" width="1720" height="1120" filterUnits="userSpaceOnUse" color-interpolation-filters="sRGB">
      <feDropShadow dx="0" dy="20" stdDeviation="24" flood-color="#111827" flood-opacity="0.14"/>
    </filter>
  </defs>

  <rect width="1600" height="1000" fill="url(#bg)"/>
  <rect width="1600" height="1000" fill="url(#glow)"/>

  <g filter="url(#shadow)">
    <rect x="160" y="150" width="1280" height="700" rx="34" fill="#FFFFFF"/>
  </g>

  <g transform="translate(240 230)">
    <rect width="520" height="78" rx="20" fill="#FCE4EC"/>
    <rect y="110" width="620" height="56" rx="18" fill="#111827" fill-opacity="0.06"/>
    <rect y="186" width="560" height="56" rx="18" fill="#111827" fill-opacity="0.06"/>
    <rect y="262" width="430" height="56" rx="18" fill="#111827" fill-opacity="0.06"/>
  </g>

  <g transform="translate(920 250)">
    <rect width="470" height="520" rx="26" fill="#111827" fill-opacity="0.04"/>

    <g transform="translate(36 44)" opacity="0.92">
      <rect x="0" y="0" width="398" height="92" rx="22" fill="#FFFFFF"/>
      <rect x="0" y="120" width="398" height="92" rx="22" fill="#FFFFFF"/>
      <rect x="0" y="240" width="398" height="92" rx="22" fill="#FFFFFF"/>

      <g transform="translate(26 26)">
        <circle cx="18" cy="18" r="10" fill="#D81B60" fill-opacity="0.55"/>
        <rect x="48" y="10" width="250" height="16" rx="8" fill="#111827" fill-opacity="0.18"/>
      </g>
      <g transform="translate(26 146)">
        <circle cx="18" cy="18" r="10" fill="#D81B60" fill-opacity="0.32"/>
        <rect x="48" y="10" width="290" height="16" rx="8" fill="#111827" fill-opacity="0.18"/>
      </g>
      <g transform="translate(26 266)">
        <circle cx="18" cy="18" r="10" fill="#D81B60" fill-opacity="0.22"/>
        <rect x="48" y="10" width="210" height="16" rx="8" fill="#111827" fill-opacity="0.18"/>
      </g>

      <rect x="0" y="380" width="250" height="60" rx="18" fill="#FCE4EC"/>
    </g>
  </g>

  <g opacity="0.22">
    <path d="M260 860 C520 700, 780 930, 1040 820" stroke="#D81B60" stroke-width="6" stroke-linecap="round"/>
    <path d="M300 900 C610 770, 830 930, 1210 850" stroke="#111827" stroke-width="6" stroke-linecap="round"/>
  </g>
</svg>
