<svg width="1600" height="1000" viewBox="0 0 1600 1000" fill="none" xmlns="http://www.w3.org/2000/svg">
  <defs>
    <linearGradient id="bg" x1="0" y1="0" x2="1" y2="1">
      <stop offset="0" stop-color="#fff"/>
      <stop offset="1" stop-color="#fafafc"/>
    </linearGradient>
    <radialGradient id="glow" cx="0" cy="0" r="1" gradientUnits="userSpaceOnUse" gradientTransform="translate(1150 380) rotate(130) scale(820 620)">
      <stop offset="0" stop-color="#FCE4EC" stop-opacity="1"/>
      <stop offset="1" stop-color="#FCE4EC" stop-opacity="0"/>
    </radialGradient>
    <filter id="shadow" x="-60" y="-60" width="1720" height="1120" filterUnits="userSpaceOnUse" color-interpolation-filters="sRGB">
      <feDropShadow dx="0" dy="18" stdDeviation="22" flood-color="#111827" flood-opacity="0.12"/>
    </filter>
  </defs>

  <rect width="1600" height="1000" fill="url(#bg)"/>
  <rect width="1600" height="1000" fill="url(#glow)"/>

  <g filter="url(#shadow)">
    <rect x="160" y="150" width="1280" height="700" rx="34" fill="#FFFFFF"/>
  </g>

  <g opacity="0.9">
    <rect x="240" y="230" width="520" height="78" rx="20" fill="#FCE4EC"/>
    <rect x="240" y="330" width="420" height="58" rx="18" fill="#111827" fill-opacity="0.06"/>
    <rect x="240" y="410" width="680" height="58" rx="18" fill="#111827" fill-opacity="0.06"/>
  </g>

  <g transform="translate(930 250)">
    <rect x="0" y="0" width="430" height="520" rx="26" fill="#111827" fill-opacity="0.04"/>

    <g transform="translate(34 42)">
      <circle cx="70" cy="70" r="70" fill="#D81B60" fill-opacity="0.14"/>
      <path d="M160 52 L212 0 L264 52 L212 104 Z" fill="#D81B60" fill-opacity="0.12"/>
      <rect x="0" y="170" width="362" height="62" rx="18" fill="#FFFFFF"/>
      <rect x="0" y="250" width="296" height="50" rx="16" fill="#FFFFFF"/>
      <rect x="0" y="316" width="328" height="50" rx="16" fill="#FFFFFF"/>
      <rect x="0" y="382" width="260" height="50" rx="16" fill="#FFFFFF"/>
    </g>
  </g>

  <g opacity="0.22">
    <path d="M230 860 C500 720, 720 940, 980 810" stroke="#D81B60" stroke-width="6" stroke-linecap="round"/>
    <path d="M330 890 C600 760, 760 940, 1100 840" stroke="#111827" stroke-width="6" stroke-linecap="round"/>
  </g>
</svg>
